<?xml version="1.0" encoding="UTF-8"?>
<!DOCTYPE svg PUBLIC "-//W3C//DTD SVG 1.1//EN" "http://www.w3.org/Graphics/SVG/1.1/DTD/svg11.dtd">
<!-- Creator: CorelDRAW 2019 (64-Bit) -->
<svg xmlns="http://www.w3.org/2000/svg" xml:space="preserve" width="8.5in" height="11in" version="1.1" style="shape-rendering:geometricPrecision; text-rendering:geometricPrecision; image-rendering:optimizeQuality; fill-rule:evenodd; clip-rule:evenodd"
viewBox="0 0 8500 11000"
 xmlns:xlink="http://www.w3.org/1999/xlink"
 xmlns:xodm="http://www.corel.com/coreldraw/odm/2003">
 <defs>
  <style type="text/css">
   <![CDATA[
    .fil3 {fill:#FEFEFE}
    .fil9 {fill:#F8C12E}
    .fil18 {fill:#F3AF89}
    .fil19 {fill:#EF8A76}
    .fil13 {fill:#F3F4F4}
    .fil23 {fill:#EE9477}
    .fil15 {fill:#EF9035}
    .fil12 {fill:#E96D62}
    .fil4 {fill:#E9EEF8}
    .fil10 {fill:#E04786}
    .fil22 {fill:#B7C7E6}
    .fil24 {fill:#A1B3D9}
    .fil6 {fill:#A7AAB3}
    .fil8 {fill:#828697}
    .fil7 {fill:#6B6E7D}
    .fil0 {fill:#2B2C2E}
    .fil20 {fill:#2C2D32}
    .fil17 {fill:#2C2E33}
    .fil2 {fill:#464A64}
    .fil11 {fill:#238B8E}
    .fil21 {fill:#257BBE}
    .fil16 {fill:#285B5C}
    .fil25 {fill:#2B64AB}
    .fil1 {fill:#2D3041}
    .fil14 {fill:#2C5486}
    .fil5 {fill:#ED1B23}
   ]]>
  </style>
 </defs>
 <g id="Layer_x0020_1">
  <metadata id="CorelCorpID_0Corel-Layer"/>
  <path class="fil0" d="M-149.56 8105.41l2.99 0c40.9,0 74.37,33.47 74.37,74.37l0 0c0,40.91 -33.47,74.37 -74.37,74.37l-2.99 0c-40.9,0 -74.37,-33.46 -74.37,-74.37l0 0c0,-40.91 33.47,-74.37 74.37,-74.37zm8540.54 0l-8325.78 0c-40.91,0 -74.37,33.47 -74.37,74.37l0 0c0,40.91 33.47,74.37 74.37,74.37l721.53 0c30.1,0 54.71,24.63 54.71,54.73l0 0c0,30.07 -24.61,54.71 -54.71,54.71l-300.65 0c-34.75,0 -63.18,28.44 -63.18,63.18l0 0c0,34.75 28.44,63.17 63.18,63.17l8087.6 0c34.74,0 63.18,-28.42 63.18,-63.17l0 0c0,-34.73 -28.44,-63.18 -63.18,-63.18l-398.82 0c-30.07,0 -54.71,-24.64 -54.71,-54.71l0 0c0,-30.1 24.64,-54.73 54.71,-54.73l216.13 0c40.91,0 74.39,-33.46 74.39,-74.37l0 0c0,-40.91 -33.47,-74.37 -74.39,-74.37l0 0z"/>
  <polygon class="fil0" points="3364.68,7977.96 5110.74,7977.96 5110.74,7338.1 3364.68,7338.1 "/>
  <path class="fil0" d="M1601.6 3527.18l5470.79 0c48.64,0 88.43,39.79 88.43,88.44l0 3836.21c0,48.65 -39.79,88.43 -88.43,88.43l-5470.79 0c-48.64,0 -88.44,-39.78 -88.44,-88.43l0 -3836.21c0,-48.65 39.81,-88.44 88.44,-88.44z"/>
  <path class="fil1" d="M1466.7 3527.18l5470.79 0c48.62,0 88.43,39.79 88.43,88.44l0 3836.21c0,48.65 -39.81,88.43 -88.43,88.43l-5470.79 0c-48.64,0 -88.44,-39.78 -88.44,-88.43l0 -3836.21c0,-48.65 39.79,-88.44 88.44,-88.44z"/>
  <path class="fil2" d="M1563.28 3613.86l5277.61 0c31.64,0 57.6,25.97 57.6,57.59l0 3402.42c0,19.76 -16.13,35.89 -35.91,35.89l-5321.01 0c-19.76,0 -35.9,-16.11 -35.9,-35.89l0 -3402.42c0,-31.62 25.97,-57.59 57.61,-57.59z"/>
  <polygon class="fil3" points="1631.79,6967.53 6772.37,6967.53 6772.37,3756.1 1631.79,3756.1 "/>
  <path class="fil4" d="M2794.68 5936l1072 0c57.07,0 103.76,46.69 103.76,103.74l0 571.83c0,57.07 -46.69,103.76 -103.76,103.76l-1072 0c-57.07,0 -103.76,-46.7 -103.76,-103.76l0 -571.83c0,-57.04 46.69,-103.74 103.76,-103.74z"/>
  <path class="fil4" d="M2718.85 5016.82l1223.67 0c15.36,0 27.93,12.57 27.93,27.93l0 0.01c0,15.36 -12.57,27.93 -27.93,27.93l-1223.67 0c-15.36,0 -27.93,-12.57 -27.93,-27.93l0 -0.01c0,-15.36 12.57,-27.93 27.93,-27.93z"/>
  <path class="fil4" d="M2718.85 5190.64l1223.67 0c15.36,0 27.93,12.57 27.93,27.94l0 0c0,15.35 -12.57,27.93 -27.93,27.93l-1223.67 0c-15.36,0 -27.93,-12.59 -27.93,-27.93l0 0c0,-15.37 12.57,-27.94 27.93,-27.94z"/>
  <path class="fil4" d="M2718.85 5364.44l1223.67 0c15.36,0 27.93,12.58 27.93,27.94l0 0c0,15.36 -12.57,27.93 -27.93,27.93l-1223.67 0c-15.36,0 -27.93,-12.57 -27.93,-27.93l0 0c0,-15.36 12.57,-27.94 27.93,-27.94z"/>
  <path class="fil4" d="M2718.85 5538.26l1223.67 0c15.36,0 27.93,12.58 27.93,27.94l0 0c0,15.36 -12.57,27.93 -27.93,27.93l-1223.67 0c-15.36,0 -27.93,-12.57 -27.93,-27.93l0 0c0,-15.36 12.57,-27.94 27.93,-27.94z"/>
  <path class="fil4" d="M2718.85 5712.1l1223.67 0c15.36,0 27.93,12.56 27.93,27.92l0 0c0,15.37 -12.57,27.94 -27.93,27.94l-1223.67 0c-15.36,0 -27.93,-12.57 -27.93,-27.94l0 0c0,-15.36 12.57,-27.92 27.93,-27.92z"/>
  <path class="fil4" d="M2735.74 4708.28l1189.9 0c24.64,0 44.81,20.17 44.81,44.82l0 114.11c0,24.64 -20.17,44.82 -44.81,44.82l-1189.9 0c-24.65,0 -44.82,-20.18 -44.82,-44.82l0 -114.11c0,-24.65 20.17,-44.82 44.82,-44.82z"/>
  <path class="fil4" d="M2718.85 4343.42l1223.67 0c15.36,0 27.93,12.57 27.93,27.93l0 0c0,15.37 -12.57,27.94 -27.93,27.94l-1223.67 0c-15.36,0 -27.93,-12.57 -27.93,-27.94l0 0c0,-15.36 12.57,-27.93 27.93,-27.93z"/>
  <path class="fil4" d="M2718.85 4517.24l1223.67 0c15.36,0 27.93,12.57 27.93,27.93l0 0c0,15.36 -12.57,27.93 -27.93,27.93l-1223.67 0c-15.36,0 -27.93,-12.57 -27.93,-27.93l0 0c0,-15.36 12.57,-27.93 27.93,-27.93z"/>
  <path class="fil4" d="M2718.85 5038.68l1223.67 0c15.36,0 27.93,12.57 27.93,27.92l0 0.01c0,15.38 -12.57,27.94 -27.93,27.94l-1223.67 0c-15.36,0 -27.93,-12.57 -27.93,-27.94l0 -0.01c0,-15.35 12.57,-27.92 27.93,-27.92z"/>
  <path class="fil4" d="M2735.74 4034.87l1189.9 0c24.64,0 44.81,20.15 44.81,44.82l0 114.1c0,24.67 -20.17,44.82 -44.81,44.82l-1189.9 0c-24.65,0 -44.82,-20.15 -44.82,-44.82l0 -114.1c0,-24.67 20.17,-44.82 44.82,-44.82z"/>
  <path class="fil4" d="M4733.81 4886.9l867.21 0c40.79,0 74.15,33.38 74.15,74.18l0 1619.63c0,40.78 -33.36,74.14 -74.15,74.14l-867.21 0c-40.79,0 -74.15,-33.36 -74.15,-74.14l0 -1619.63c0,-40.8 33.36,-74.18 74.15,-74.18z"/>
  <path class="fil4" d="M5821.22 5882.39l754.4 0c15.37,0 27.93,12.58 27.93,27.93l0 0.02c0,15.36 -12.56,27.94 -27.93,27.94l-754.4 0c-15.38,0 -27.93,-12.59 -27.93,-27.94l0 -0.02c0,-15.35 12.56,-27.93 27.93,-27.93z"/>
  <path class="fil4" d="M5821.22 6056.22l754.4 0c15.37,0 27.93,12.56 27.93,27.93l0 0c0,15.36 -12.56,27.92 -27.93,27.92l-754.4 0c-15.38,0 -27.93,-12.56 -27.93,-27.92l0 0c0,-15.37 12.56,-27.93 27.93,-27.93z"/>
  <path class="fil4" d="M5821.22 6230.03l754.4 0c15.37,0 27.93,12.57 27.93,27.94l0 0c0,15.36 -12.56,27.92 -27.93,27.92l-754.4 0c-15.38,0 -27.93,-12.56 -27.93,-27.92l0 0c0,-15.37 12.56,-27.94 27.93,-27.94z"/>
  <path class="fil4" d="M5821.22 6403.83l754.4 0c15.37,0 27.93,12.57 27.93,27.94l0 0c0,15.36 -12.56,27.96 -27.93,27.96l-754.4 0c-15.38,0 -27.93,-12.6 -27.93,-27.96l0 0c0,-15.38 12.56,-27.94 27.93,-27.94z"/>
  <path class="fil4" d="M5821.22 6577.67l754.4 0c15.37,0 27.93,12.57 27.93,27.93l0 0c0,15.36 -12.56,27.93 -27.93,27.93l-754.4 0c-15.38,0 -27.93,-12.57 -27.93,-27.93l0 0c0,-15.36 12.56,-27.93 27.93,-27.93z"/>
  <polygon class="fil4" points="4464.49,4322.92 6563.17,4322.92 6563.17,4008.29 4464.49,4008.29 "/>
  <polygon class="fil4" points="4464.49,4702.83 6563.17,4702.83 6563.17,4444.59 4464.49,4444.59 "/>
  <path class="fil4" d="M5838.11 5573.85l720.63 0c24.65,0 44.82,20.17 44.82,44.83l0 114.1c0,24.65 -20.17,44.82 -44.82,44.82l-720.63 0c-24.65,0 -44.82,-20.17 -44.82,-44.82l0 -114.1c0,-24.67 20.17,-44.83 44.82,-44.83z"/>
  <path class="fil4" d="M5821.22 5209l754.4 0c15.37,0 27.93,12.57 27.93,27.93l0 0.02c0,15.36 -12.56,27.93 -27.93,27.93l-754.4 0c-15.38,0 -27.93,-12.57 -27.93,-27.93l0 -0.02c0,-15.36 12.56,-27.93 27.93,-27.93z"/>
  <path class="fil4" d="M5821.22 5382.81l754.4 0c15.37,0 27.93,12.58 27.93,27.93l0 0c0,15.37 -12.56,27.93 -27.93,27.93l-754.4 0c-15.38,0 -27.93,-12.56 -27.93,-27.93l0 0c0,-15.35 12.56,-27.93 27.93,-27.93z"/>
  <path class="fil4" d="M5821.22 5904.25l754.4 0c15.37,0 27.93,12.58 27.93,27.94l0 0c0,15.36 -12.56,27.93 -27.93,27.93l-754.4 0c-15.38,0 -27.93,-12.57 -27.93,-27.93l0 0c0,-15.36 12.56,-27.94 27.93,-27.94z"/>
  <path class="fil4" d="M5838.11 4900.44l720.63 0c24.65,0 44.82,20.18 44.82,44.82l0 114.1c0,24.67 -20.17,44.83 -44.82,44.83l-720.63 0c-24.65,0 -44.82,-20.17 -44.82,-44.83l0 -114.1c0,-24.64 20.17,-44.82 44.82,-44.82z"/>
  <path class="fil4" d="M1860.39 4039.68l699.04 0c32.87,0 59.78,26.9 59.78,59.81l0 1037.03c0,32.87 -26.9,59.78 -59.78,59.78l-699.04 0c-32.87,0 -59.78,-26.9 -59.78,-59.78l0 -1037.03c0,-32.91 26.91,-59.81 59.78,-59.81z"/>
  <path class="fil4" d="M1860.39 5349.81l699.04 0c32.87,0 59.78,26.9 59.78,59.79l0 1245.94c0,32.89 -26.9,59.79 -59.78,59.79l-699.04 0c-32.87,0 -59.78,-26.91 -59.78,-59.79l0 -1245.94c0,-32.89 26.91,-59.79 59.78,-59.79z"/>
  <path class="fil0" d="M6393.65 7916.83c0,-72.38 -59.21,-131.57 -131.56,-131.57l-4048.79 0c-72.35,0 -131.56,59.19 -131.56,131.57l0 141.37c0,25.97 21.24,47.2 47.18,47.2l4217.53 0c25.96,0 47.19,-21.24 47.19,-47.2l0 -141.37z"/>
  <path class="fil1" d="M6144.39 7938.52c0,-51.89 -42.46,-94.35 -94.33,-94.35l-3624.68 0c-51.89,0 -94.36,42.47 -94.36,94.35l0 125.02c0,18.62 15.24,33.85 33.85,33.85l3745.69 0c18.63,0 33.83,-15.24 33.83,-33.85l0 -125.02z"/>
  <path class="fil5" d="M3595.8 4620.89l-224.94 0 -477.74 994.04 0 188.52 475.6 0 0 317.07 227.09 0 0 -317.07 104.98 0 0 -209.95 -104.98 0 0 -972.62zm-227.09 437.04l0 535.58 -252.8 0 248.51 -535.58 4.28 0zm839.8 -458.46c-227.09,0 -366.34,143.54 -366.34,379.19l0 784.09c0,235.65 139.25,379.19 366.34,379.19 227.09,0 366.34,-143.54 366.34,-379.19l0 -784.09c0,-235.66 -139.25,-379.19 -366.34,-379.19zm0 209.95c89.98,0 139.25,59.98 139.25,171.39l0 779.81c0,111.4 -49.27,171.39 -139.25,171.39 -89.98,0 -139.25,-59.99 -139.25,-171.39l0 -779.81c0,-111.4 49.28,-171.39 139.25,-171.39zm1197.56 -188.53l-224.94 0 -477.74 994.04 0 188.52 475.6 0 0 317.07 227.09 0 0 -317.07 104.98 0 0 -209.95 -104.98 0 0 -972.62zm-227.09 437.04l0 535.58 -252.8 0 248.51 -535.58 4.28 0z"/>
  <path class="fil6" d="M5793.21 5111.44l-143.36 0c-25.9,0 -47.08,21.19 -47.08,47.08l0 0c0,25.89 21.18,47.08 47.08,47.08l143.36 0c25.9,0 47.08,-21.19 47.08,-47.08l0 0c0,-25.89 -21.18,-47.08 -47.08,-47.08z"/>
  <path class="fil6" d="M5793.21 5518.02l-143.36 0c-25.9,0 -47.08,21.18 -47.08,47.09l0 0c0,25.89 21.18,47.07 47.08,47.07l143.36 0c25.9,0 47.08,-21.18 47.08,-47.07l0 0c0,-25.92 -21.18,-47.09 -47.08,-47.09z"/>
  <path class="fil7" d="M6572.13 5309.13l-394.82 0c-13.53,0 -24.6,11.06 -24.6,24.57l0 56.24c0,13.52 11.07,24.59 24.6,24.59l394.82 0c13.53,0 24.6,-11.07 24.6,-24.59l0 -56.24c0,-13.51 -11.07,-24.57 -24.6,-24.57z"/>
  <path class="fil8" d="M6060.24 5005.37l-219.94 0 0 712.89 219.94 0c125.33,0 227.89,-102.54 227.89,-227.87l0 -257.15c0,-125.32 -102.56,-227.86 -227.89,-227.86z"/>
  <path class="fil7" d="M5997.58 5005.37l-157.29 0 0 712.89 219.94 0c70.22,0 133.26,-32.18 175.14,-82.51 -177.96,0 -237.79,-57.65 -237.79,-164.64l0 -465.74z"/>
  <path class="fil8" d="M5848.85 4927.43l0 0c-42.37,0 -77.04,34.67 -77.04,77.03l0 714.71c0,42.36 34.67,77.03 77.04,77.03l0 0c42.38,0 77.04,-34.67 77.04,-77.03l0 -714.71c0,-42.36 -34.67,-77.03 -77.04,-77.03z"/>
  <path class="fil8" d="M5848.85 5426.18l0 0c-42.37,0 -77.04,34.65 -77.04,77.01l0 215.97c0,42.36 34.67,77.03 77.04,77.03l0 0c42.38,0 77.04,-34.67 77.04,-77.03l0 -215.97c0,-42.36 -34.67,-77.01 -77.04,-77.01z"/>
  <path class="fil8" d="M1880.43 4908.79l695.15 0c40.14,0 72.99,32.83 72.99,72.97l0 760.1c0,40.15 -32.85,72.97 -72.99,72.97l-695.15 0c-40.14,0 -72.99,-32.82 -72.99,-72.97l0 -760.1c0,-40.14 32.85,-72.97 72.99,-72.97z"/>
  <path class="fil6" d="M1946.24 4994.57l563.54 0c32.54,0 59.15,26.61 59.15,59.15l0 616.18c0,32.56 -26.61,59.15 -59.15,59.15l-563.54 0c-32.53,0 -59.15,-26.6 -59.15,-59.15l0 -616.18c0,-32.54 26.63,-59.15 59.15,-59.15z"/>
  <path class="fil8" d="M2056.15 5103.46l0 0c42.52,0 77.28,34.76 77.28,77.28l0 362.15c0,42.5 -34.76,77.26 -77.28,77.26l0 0c-42.5,0 -77.28,-34.76 -77.28,-77.26l0 -362.15c0,-42.52 34.78,-77.28 77.28,-77.28z"/>
  <path class="fil8" d="M2399.86 5103.46l0 0c42.5,0 77.28,34.76 77.28,77.28l0 362.15c0,42.5 -34.78,77.26 -77.28,77.26l0 0c-42.52,0 -77.28,-34.76 -77.28,-77.26l0 -362.15c0,-42.52 34.76,-77.28 77.28,-77.28z"/>
  <path class="fil9" d="M657.86 4580.89l810.11 0c58.85,0 106.99,48.15 106.99,107l0 754.69c0,4.93 -2.82,9.14 -7.38,11.04 -4.54,1.87 -9.53,0.89 -13.01,-2.6l-182.31 -182.32 -714.4 0c-58.85,0 -106.99,-48.13 -106.99,-106.99l0 -473.83c0,-58.85 48.14,-107 106.99,-107z"/>
  <path class="fil3" d="M766.24 4970.28l-55.64 0 0 -32.51 51.54 0 0 -37.33 -51.54 0 0 -26.98 55.64 0 0 -37.33 -102.12 0 0 171.96 102.12 0 0 -37.81zm88.39 -24.81l36.37 62.62 52.75 0 -50.1 -74.9c19.51,-11.08 29.14,-26.26 29.14,-46.24 0,-33.96 -23.36,-50.82 -70.09,-50.82l-56.36 0 0 171.96 46.48 0 0 -62.62 11.8 0zm-11.8 -74.18l9.15 0c15.9,0 23.84,6.02 23.84,17.82 0,14.21 -7.94,21.44 -24.32,21.44l-8.67 0 0 -39.26zm174.86 74.18l36.37 62.62 52.75 0 -50.1 -74.9c19.51,-11.08 29.14,-26.26 29.14,-46.24 0,-33.96 -23.36,-50.82 -70.09,-50.82l-56.36 0 0 171.96 46.48 0 0 -62.62 11.8 0zm-11.8 -74.18l9.15 0c15.9,0 23.84,6.02 23.84,17.82 0,14.21 -7.94,21.44 -24.32,21.44l-8.67 0 0 -39.26zm256.26 -15.41c-13.97,-14.93 -34.68,-22.4 -62.14,-22.4 -27.22,0 -48.17,7.46 -62.38,22.64 -14.21,15.17 -21.44,36.85 -21.44,65.51 0,28.9 7.22,51.06 21.44,66.23 14.45,15.17 35.16,22.64 62.14,22.64 27.46,0 48.17,-7.47 62.38,-22.64 14.21,-14.93 21.2,-37.09 21.2,-65.99 0,-28.9 -6.99,-51.06 -21.2,-65.99zm-62.14 15.66c11.56,0 19.99,4.09 25.77,12.28 5.78,8.19 8.67,20.95 8.67,38.05 0,17.1 -2.89,29.63 -8.43,37.81 -5.78,7.95 -14.45,12.04 -26.25,12.04 -23.12,0 -34.69,-16.62 -34.69,-49.86 0,-33.48 11.56,-50.33 34.93,-50.33zm172.69 73.94l36.37 62.62 52.75 0 -50.1 -74.9c19.51,-11.08 29.14,-26.26 29.14,-46.24 0,-33.96 -23.36,-50.82 -70.09,-50.82l-56.36 0 0 171.96 46.48 0 0 -62.62 11.8 0zm-11.8 -74.18l9.15 0c15.9,0 23.84,6.02 23.84,17.82 0,14.21 -7.94,21.44 -24.32,21.44l-8.67 0 0 -39.26z"/>
  <g id="_2499280077872">
   <path class="fil10" d="M7957.26 3130.52l-810.09 0c-58.88,0 -107,48.14 -107,106.99l0 754.69c0,4.93 2.82,9.14 7.37,11.04 4.56,1.87 9.51,0.89 13,-2.6l182.32 -182.3 714.4 0c58.85,0 106.99,-48.15 106.99,-106.99l0 -473.85c0,-58.85 -48.14,-106.99 -106.99,-106.99z"/>
   <path class="fil3" d="M7255.52 3519.91l-55.64 0 0 -32.51 51.54 0 0 -37.33 -51.54 0 0 -26.98 55.64 0 0 -37.33 -102.12 0 0 171.96 102.12 0 0 -37.81zm88.39 -24.81l36.37 62.62 52.75 0 -50.1 -74.9c19.51,-11.08 29.14,-26.26 29.14,-46.24 0,-33.96 -23.36,-50.82 -70.09,-50.82l-56.36 0 0 171.96 46.48 0 0 -62.62 11.8 0zm-11.8 -74.18l9.15 0c15.9,0 23.84,6.02 23.84,17.82 0,14.21 -7.94,21.44 -24.32,21.44l-8.67 0 0 -39.26zm174.86 74.18l36.37 62.62 52.75 0 -50.1 -74.9c19.51,-11.08 29.14,-26.26 29.14,-46.24 0,-33.96 -23.36,-50.82 -70.09,-50.82l-56.36 0 0 171.96 46.48 0 0 -62.62 11.8 0zm-11.8 -74.18l9.15 0c15.9,0 23.84,6.02 23.84,17.82 0,14.21 -7.94,21.44 -24.32,21.44l-8.67 0 0 -39.26zm256.26 -15.41c-13.97,-14.93 -34.68,-22.4 -62.14,-22.4 -27.22,0 -48.17,7.46 -62.38,22.64 -14.21,15.17 -21.44,36.85 -21.44,65.51 0,28.9 7.22,51.06 21.44,66.23 14.45,15.17 35.16,22.64 62.14,22.64 27.46,0 48.17,-7.47 62.38,-22.64 14.21,-14.93 21.2,-37.09 21.2,-65.99 0,-28.9 -6.99,-51.06 -21.2,-65.99zm-62.14 15.66c11.56,0 19.99,4.09 25.77,12.28 5.78,8.19 8.67,20.95 8.67,38.05 0,17.1 -2.89,29.63 -8.43,37.81 -5.78,7.95 -14.45,12.04 -26.25,12.04 -23.12,0 -34.69,-16.62 -34.69,-49.86 0,-33.48 11.56,-50.33 34.93,-50.33zm172.69 73.94l36.37 62.62 52.75 0 -50.1 -74.9c19.51,-11.08 29.14,-26.26 29.14,-46.24 0,-33.96 -23.36,-50.82 -70.09,-50.82l-56.36 0 0 171.96 46.48 0 0 -62.62 11.8 0zm-11.8 -74.18l9.15 0c15.9,0 23.84,6.02 23.84,17.82 0,14.21 -7.94,21.44 -24.32,21.44l-8.67 0 0 -39.26z"/>
  </g>
  <path class="fil11" d="M6883.18 4997.97c0,0 -80.39,184.53 -96.04,101.22 -33.5,-178.47 -256.79,-328.29 -316.69,-423.06 -36.44,-57.62 -65.36,-73.01 -39.72,-111.69 88.09,-132.96 297.17,-218.56 475.85,-284.37 66.1,-24.33 54.39,39.9 7.67,90.18 -41.36,44.5 -296.48,181.62 -279.07,213.51 20.4,37.31 149.93,153.13 325.28,192.25 175.33,39.11 21.9,183.72 -77.26,221.96z"/>
  <path class="fil11" d="M7193.89 4881.29c0,0 -22.58,-34.24 4.68,57.74 19.46,65.68 300.83,328.11 429.1,438.47 128.5,110.56 135.67,93.58 317.47,80.24 133.02,-9.78 285.15,-30.21 322.28,-52.6 0,0 6.86,-4.57 -1.02,-11.9 -7.89,-7.35 -41.03,-26.21 -43.19,-42.28 -2.15,-16.08 -15.01,-13.58 -31.15,-6.69 -16.17,6.9 -316.17,-5.69 -388.92,-15.17 -72.76,-9.47 -290.9,-376.52 -327.01,-411.08 -36.1,-34.57 -172.61,-99.09 -282.24,-36.72z"/>
  <path class="fil12" d="M7221.36 4539.69l-3.69 56.07c0,0 -2.5,119.46 -2.77,132.4 -0.28,12.94 5.3,17.43 19.74,28.29 18.42,33.54 -38.64,175.61 -77.25,180.53 -38.61,4.91 -215.79,-12.82 -228.06,-23.17 -8.56,-7.24 81.87,-136.83 77.17,-157.43 7.9,-1.9 27.02,1.68 32.93,-3.39 8.17,-25.03 27.47,-125 1.01,-158.25 -19.76,-24.81 180.92,-55.06 180.92,-55.06z"/>
  <path class="fil13" d="M6883.04 4966.72c32.65,-18.58 50.74,-2.54 85,33.89 34.28,36.46 67.53,33.58 86.71,41.81 19.18,8.22 11.58,339.74 -115.94,388.11 -47.2,17.92 -75.85,-2.13 -93.08,-41.92 -30.92,-71.46 -47.57,-373.56 37.32,-421.89z"/>
  <path class="fil14" d="M6770.35 5836.46l-28.4 39.38c0,0 18.6,344.12 61.21,788.17 42.61,444 124.28,1249.78 122.5,1328.5 -1.75,78.7 108.19,39.83 121.52,17.62 13.3,-22.19 -36.31,-1596.43 -25.65,-1739.7 3.71,-50 70.24,-31.24 96.15,68.36 48.33,185.83 69.9,578.08 84.93,801.46 23.06,343.11 65.18,867.35 62.15,895.11 -3.06,27.75 94.07,55.5 113.61,11.1 0,0 3.98,-6.56 2.68,-30.28 -1.33,-23.72 19.51,-2180.27 -5.35,-2238.8 -24.86,-58.53 -546.83,-86.79 -605.35,59.08z"/>
  <path class="fil9" d="M7402.14 6032.83c-28.96,61.03 -165.54,100 -273.46,115.43l0.02 0 -0.11 0c-25.85,3.69 -50.06,6.02 -70.74,7 -13.82,0.64 -26.36,-0.33 -37.72,-2.71 -117.1,-2.96 -204.65,-30.68 -257.32,-53.29 -31.76,-3.33 -49.03,-14.4 -57.54,-29.72l-0.03 -0.02 0.02 -0.03c-13.81,-24.93 -4.47,-61.08 3.14,-93.36 13.68,-57.97 79,-169.79 73.43,-446.04 -5.35,-265.68 -46.68,-712.72 200.64,-769.38l0 0c0,0 26.58,-16.67 48.51,-7.07 0,0 -51.89,89.18 5.21,132.64 0.74,0.46 1.5,0.92 2.29,1.36 7.63,4.35 15.46,7.22 23.32,8.85 61.82,7.96 155.71,-74.06 172.85,-140.04 0,0 27.06,2.09 42.09,22.64 0,0 -0.43,1.26 -1.33,3.51 8.14,8.94 -3.9,19.49 -12,25.1 -0.99,1.81 -2.06,3.67 -3.15,5.6 45.9,23.91 101.07,64.94 107.65,114.36 9.57,71.78 64.36,339.47 9.53,493.88 -91.83,258.47 73.6,508.37 24.72,611.29z"/>
  <path class="fil15" d="M7402.14 6032.83c-28.96,61.03 -165.54,100 -273.46,115.43l0.02 0 -0.11 0c-25.85,3.69 -50.06,6.02 -70.74,7 -13.82,0.64 -26.36,-0.33 -37.72,-2.71 -117.1,-2.96 -204.65,-30.68 -257.32,-53.29 -31.76,-3.33 -49.03,-14.4 -57.54,-29.72l-0.03 -0.02 0.02 -0.03c-13.81,-24.93 -4.47,-61.08 3.14,-93.36l0.29 -1.15c79.57,-6.78 163.43,-23.47 213.96,-61.09 118.44,-88.15 284.83,-889.59 327.13,-1087.28 0,0 60.03,97.26 138.93,241.19 14.06,110.46 23.72,255.17 -11.28,353.72 -91.83,258.47 73.6,508.37 24.72,611.29z"/>
  <path class="fil2" d="M6971.2 8027.61c0,0 -32.5,-36.83 -58.41,-30.53 -25.93,6.28 -175.78,73.33 -199.8,82.5 -24.04,9.18 -49.31,44.12 -30.36,64.19 28.57,30.18 279.08,-2.5 355.97,2.86 24.67,1.72 53.56,-48.92 29.74,-122.07 -23.83,-73.15 -7.99,16.2 -97.14,3.04z"/>
  <path class="fil2" d="M7396.28 8029.39c6.48,5.28 12.86,12.23 16.82,20.98 10.87,24.06 31.44,34.94 35.08,61.31 3.63,26.36 -4.85,47 -42.94,47 -38.13,0 -34.48,0 -61.72,0 -27.21,0 -67.75,4 -81.65,-28.08 -6,-13.86 -10.37,-81.67 0.57,-95.65 19.14,-24.53 81.47,-48.17 133.85,-5.56z"/>
  <path class="fil11" d="M7276.72 4779.1c0,0 -140.88,254.43 -170.53,677.93 -29.65,423.52 -16.2,707.76 307.33,809.86 0,0 15.02,4.36 26.43,-26.07 54.08,-144.18 -126.63,-776.24 23.25,-1160.42 45.15,-115.72 -15.35,-260.3 -186.48,-301.3z"/>
  <path class="fil11" d="M6982.46 4760.72c0,0 -67.44,134.31 -72.13,405.36 -4.7,271.04 -48.31,735.33 -64.03,831.72 -15.75,96.36 -84.76,199.25 -121.68,210.82 0,0 -49.9,14.42 -58.07,-59.28 -8.17,-73.72 77.39,-356.72 92.86,-676.56 15.46,-319.83 -5.19,-680.42 223.04,-712.07z"/>
  <path class="fil16" d="M7089.44 5712.94c0,0 111.43,-669.36 248.57,-917.07 0,0 -44.85,-27.17 -69.82,-23 -24.97,4.2 -178.93,425.22 -178.75,940.07z"/>
  <path class="fil16" d="M6982.68 4760.6c-51.81,162.14 -72.35,673.35 -104.36,871.64 -5.46,-90.93 -9.32,-702.25 48.15,-854.1 0,0 17.24,-20.47 56.21,-17.54z"/>
  <path class="fil16" d="M7288.82 5865.37c-1.87,-7.92 -10.14,-12.87 -18.46,-11.11 -8.33,1.75 -13.58,9.57 -11.72,17.47 0.1,0.44 35.97,154.98 113.93,200.9 7.26,4.28 16.8,2.18 21.3,-4.71 4.53,-6.87 2.3,-15.9 -4.94,-20.18 -66.85,-39.36 -100.02,-181.97 -100.11,-182.38z"/>
  <path class="fil16" d="M6743.92 5803.46c0.72,-7.23 7.52,-12.53 15.11,-11.85 7.64,0.7 13.24,7.13 12.5,14.33 -0.03,0.42 -13.9,141.75 -77.94,190.86 -5.96,4.57 -14.69,3.68 -19.53,-1.97 -4.8,-5.63 -3.89,-13.92 2.08,-18.49 54.89,-42.07 67.74,-172.54 67.78,-172.89z"/>
  <path class="fil17" d="M6957.99 4470.25c0,0 -46.39,-42.18 -46.24,-66.85 0.17,-24.67 34.24,-15.47 34.24,-15.47 0,0 -52.11,-51.36 -52.92,-97.22 -0.83,-45.89 46.51,-29.17 46.51,-29.17 0,0 -25.44,-44.1 12.65,-86.63 0,0 -16.83,-20.2 -7.86,-50.52 0,0 0.7,-3.72 4.85,-2.4 4.17,1.32 5.57,24.21 31.69,23.57 0,0 10.53,-80.04 74.35,-43.02 0,0 41.21,-80.93 110.31,-22.46 0,0 137.39,-50.93 184.67,71.98 0,0 85.17,-16.96 82.02,75.57 0,0 43.22,19.94 14.48,90.67 0,0 28.46,-26.46 39.92,-20.11 11.43,6.33 -12.98,58.44 -41.71,79.79 0,0 29.89,-13.19 33.57,3.31 3.65,16.51 -26.28,46.39 -44.96,51 0,0 10.97,7.36 8.49,24.8 -2.47,17.44 -44.2,55.1 -101.37,62.94 -57.17,7.86 -240.43,34.13 -382.68,-49.8z"/>
  <path class="fil0" d="M6957.99 4470.25c0,0 -46.39,-42.18 -46.24,-66.85 0.17,-24.67 34.24,-15.47 34.24,-15.47 0,0 -52.11,-51.36 -52.92,-97.22 -0.31,-16.6 5.71,-24.99 13.48,-28.96 -0.14,0.24 -15.24,24.44 19.86,42.5 35.32,18.14 154.87,-5.02 201.89,-40.33 0,0 13.92,49.98 66.22,51.4 52.31,1.44 85.79,-38.8 90.08,-47.96 0,0 30.82,57.63 95.31,47.29 46.4,-7.44 64.78,-41.81 70.53,-67.86 7.08,13.85 10.56,36.44 -3.71,71.53 0,0 28.46,-26.46 39.92,-20.11 11.43,6.33 -12.98,58.44 -41.71,79.79 0,0 29.89,-13.19 33.57,3.31 3.65,16.51 -26.28,46.39 -44.96,50.98 0,0 10.97,7.37 8.49,24.82 -2.47,17.44 -44.2,55.1 -101.37,62.94 -57.17,7.86 -240.43,34.13 -382.68,-49.8z"/>
  <path class="fil12" d="M6968.96 4438.74c30.82,4.36 52.25,32.9 47.89,63.74 -4.39,30.81 -32.93,52.25 -63.75,47.87 -30.82,-4.37 -52.26,-32.92 -47.87,-63.74 4.37,-30.83 32.9,-52.26 63.74,-47.87z"/>
  <path class="fil12" d="M7351.26 4493.04c30.82,4.37 52.26,32.91 47.87,63.72 -4.37,30.82 -32.9,52.28 -63.74,47.89 -30.8,-4.37 -52.23,-32.92 -47.87,-63.74 4.39,-30.82 32.92,-52.26 63.74,-47.87z"/>
  <path class="fil18" d="M7187.43 4181.85l0.01 0c105.13,14.93 178.94,113.17 164,218.31l-24.68 173.72c-14.93,105.14 -113.17,178.94 -218.29,164l-0.01 0c-105.15,-14.93 -178.93,-113.17 -164,-218.32l24.67 -173.71c14.94,-105.14 113.18,-178.93 218.31,-164z"/>
  <path class="fil19" d="M7263.14 4209.71l0.39 0.24c62,39.5 98.91,113 87.93,190.21l-24.7 173.72c-14.92,105.14 -113.15,178.94 -218.29,164l-0.01 0c-24.15,-3.43 -46.64,-11.28 -66.79,-22.57 186.78,28.01 225.56,-96.18 240.67,-202.56 22.3,-157.06 -157.21,-124.92 -297.75,-144.88 -6.25,-0.89 -12.29,-1.9 -18.15,-3.01l2.7 -19.03c2.43,-17.14 7.1,-33.44 13.64,-48.68 82.25,-36.78 195.56,-83.54 246.18,-86.56 15.11,-0.89 25.51,-1.5 32.54,-1.89l1.13 0.69c-1.07,0.17 -1.21,0.29 0.51,0.31z"/>
  <path class="fil0" d="M7331.85 4383.63c0,0 -5.08,35.72 -8.36,58.82 -3.26,23.1 -0.06,30.51 10.3,40.56 0,0 -10.25,21.31 1.86,28.36 0,0 2.53,-17.72 21.18,-17.25l21.56 -151.74c-10.44,13.03 -25.22,23.46 -46.1,27.96 0.31,4.19 0.2,8.62 -0.44,13.29z"/>
  <path class="fil17" d="M7244.46 4342.32c0,0 -78.91,35.76 -124.5,-11.14 -20.33,33.48 -97.11,65.08 -68.93,3.04 -42.54,18.72 -34.5,-5.78 -22.3,-11.62 0,0 -38.75,17.36 -60.47,12.08 -94.31,-22.94 57.21,-155.14 86.09,-176.5 0,0 201.85,2.06 209.06,13.92 2.56,4.22 10,12.78 18.56,22.97 20.76,4.43 41.86,10.92 44.54,12.75 5.46,3.78 67.56,66.61 77.78,79.07 10.25,12.44 34.9,164.97 -59.52,160.25 -94.42,-4.72 -100.3,-104.82 -100.3,-104.82z"/>
  <path class="fil0" d="M7244.46 4342.32c0,0 -78.91,35.76 -124.5,-11.14 -20.33,33.48 -97.11,65.08 -68.93,3.04 -42.54,18.72 -34.5,-5.78 -22.3,-11.62 0,0 -38.75,17.36 -60.47,12.08 -19.58,-4.76 -28.56,-14.26 -30.22,-26.49 44.85,9.89 147.54,-12.17 190.28,-44.28 0,0 13.92,49.98 66.22,51.4 52.31,1.44 85.79,-38.8 90.08,-47.96 0,0 30.82,57.63 95.31,47.29 11.82,-1.89 21.83,-5.54 30.25,-10.36 9.3,42.97 12.72,146.76 -65.41,142.85 -94.42,-4.72 -100.3,-104.82 -100.3,-104.82z"/>
  <path class="fil3" d="M7037.06 4639.03c11.46,-45.39 30.28,-64.46 55.14,-61.03 43.59,6.03 35.46,79.78 35.46,79.78l-90.6 -18.75z"/>
  <path class="fil18" d="M8274.43 5417.78c1,-0.02 2.06,-0.07 3.11,-0.11 12.37,0.6 24.76,-1.58 36.06,-5.48 52.46,-11.71 120.93,-38.97 126.51,-55.47 7.17,-21.22 -20.61,-11.04 -20.61,-11.04 0,0 25.97,-16.12 26.87,-28.85 0.91,-12.72 -17.01,-12.72 -17.01,-12.72 0,0 24.18,-19.52 17.92,-27.15 -6.28,-7.63 -25.99,-6.78 -25.99,-6.78 0,0 19.71,-16.97 10.74,-22.06 -8.94,-5.09 -52.83,22.91 -74.33,28.83 -12.61,3.48 -41.92,10.78 -63.96,16.19 -1.15,-2.93 -0.85,-5.58 0.24,-8.33 16.31,-41.76 -13.3,-88.36 -24.03,-56.53 -4.82,14.26 -8.42,34.68 -22.03,44.69 -23.25,17.13 -44.36,55.87 -42.64,81.98 14.44,43.32 41.53,60.09 69.12,62.5l0.03 0.32z"/>
  <path class="fil19" d="M8274.43 5417.78c1,-0.02 2.06,-0.07 3.11,-0.11 12.37,0.6 24.76,-1.58 36.06,-5.48 9.69,-2.17 19.97,-4.86 30.26,-7.93 -18.82,3.32 -36.24,4.68 -49.47,2.51 -49.54,-8.11 -71.52,-55.78 -70.08,-108.04 -12.02,18 -20.11,39.67 -19.03,56.24 14.44,43.32 41.53,60.09 69.12,62.5l0.03 0.32z"/>
  <path class="fil16" d="M6776.99 5060.82c6.25,-151.96 18.17,-180.44 -40.49,-220.85 -57.39,-39.54 -252.4,-168.28 -308.04,-271.94 -21.54,36.1 6.69,52.31 41.98,108.11 55.56,87.91 251.65,223.14 306.54,384.68z"/>
  <path class="fil16" d="M7450.79 5115.06c-8.61,26.2 -15.87,53.36 -21.92,81.32 73.11,69.79 147.97,137.39 198.8,181.13 128.5,110.56 135.67,93.58 317.46,80.24 119.19,-8.76 253.69,-26.07 307.13,-45.68 -10.44,-4.39 -20.28,-11.54 -28.76,-22.19 -110.92,23.14 -290.92,56.51 -384.33,51.21 -120.87,-6.88 -330.89,-255.26 -388.36,-326.02z"/>
  <path class="fil2" d="M1231.7 8014.61c0,0 -18.41,90.8 -117.8,90.8 -99.39,0 -280.98,0 -323.93,0 -42.94,0 -184.06,-50.31 -157.06,-204.92 26.98,-154.6 598.78,114.12 598.78,114.12z"/>
  <path class="fil0" d="M2242.75 7689.46c12.25,-17.18 90.97,-156.19 90.97,-156.19 0,0 -151.1,0 -211.22,0 -60.13,0 -244.17,40.83 -338.65,42.08 -94.47,1.22 -851.54,-35.59 -851.54,-35.59 0,0 -349.54,-67.47 -398.2,-73.47 -48.65,-5.99 39.92,237.89 57.09,257.51 17.18,19.65 795.11,265.04 861.36,242.96 66.26,-22.08 790.2,-277.29 790.2,-277.29z"/>
  <path class="fil20" d="M1367.6 7878.04c0,0 750.92,-296.93 844.18,-323.93 93.25,-27 161.96,-33.12 207.36,13.49 45.41,46.64 66.26,144.79 0,213.51 -66.25,68.71 -525.15,192.63 -714.11,219.63 -188.96,27 -263.19,42.96 -291.42,46.64 -28.21,3.67 -45.39,-1.25 -53.36,-25.78 -7.99,-24.54 -20.25,-98.17 -19.64,-114.71 0.61,-16.57 26.99,-28.85 26.99,-28.85z"/>
  <path class="fil2" d="M1595.21 8101.92c0,0 -5.51,39.93 20.85,39.93 26.39,0 129.38,0 197.68,0 68.29,0 191.72,-16.33 234.86,-67.86 43.13,-51.53 62.25,-91.28 65.93,-127.48 3.7,-36.19 -37.42,-80.37 -90.19,-91.42 -52.75,-11.05 -174.22,20.85 -209.81,34.35 -35.58,13.52 -174.08,35.39 -179.07,55.74 -4.99,20.35 -40.25,156.74 -40.25,156.74z"/>
  <path class="fil21" d="M1630.79 6689.11c0,0 -52.36,-103.54 39.1,-156.54 65.35,-37.88 309.43,-263.63 403.18,-422.54 139.93,-237.17 -143.89,-413.43 -437.44,-505.76 -27.25,31.25 -4,92.9 18.81,123.21 11.3,15 227.94,186.29 240.41,235.26 12.47,49.02 -265.97,375.08 -294.03,422 -28.04,46.92 -63.44,206.63 29.97,304.37z"/>
  <path class="fil21" d="M1032.29 6413c0,0 31,-32.71 -60.47,20.31 -65.33,37.86 -290.72,407.86 -384.47,566.79 -139.93,237.18 133.2,362.67 362.64,489.75 0,0 51.72,-21.07 57.62,-31.24 5.89,-10.19 -17.75,-35.11 -1.12,-41.65 16.62,-6.53 10.8,-19.28 -0.5,-34.29 -11.31,-15.01 -227.94,-186.29 -240.42,-235.28 -12.47,-49.02 265.97,-375.1 294.03,-422 28.04,-46.92 66.11,-214.63 -27.31,-312.39z"/>
  <path class="fil21" d="M1466.1 6303.97c-133.53,21.17 -95.96,20.76 -230.44,0.11l-15.52 7.57 -223.19 109 23.35 395.96c1.46,22.29 2.92,43.76 4.36,64.46l0.89 41.87c0,0 -15.49,328.53 -11.83,342.64 3.65,14.13 33.26,47.76 33.26,47.76 -1.17,8.91 -2.43,18.41 -3.81,28.35 53.33,22.35 152.44,51.09 307.6,49.74 155.17,1.35 254.29,-27.39 307.61,-49.74 -1.36,-9.94 -2.64,-19.44 -3.8,-28.35 0,0 29.6,-33.64 33.26,-47.76 3.67,-14.11 -11.82,-342.64 -11.82,-342.64l0.86 -41.87c1.46,-20.7 2.92,-42.17 4.38,-64.46l23.35 -395.96 157.64 -350.57 -396.14 233.89z"/>
  <path class="fil3" d="M1347.17 6319.65l5.01 0.71 5.42 -0.76c22.28,-0.79 47.57,-5.99 108.5,-15.63l36.93 -21.28c-59.46,158.36 -186.54,182.09 -303.86,54.82l-9.93 -10.76 30.9 -15.1 15.52 -7.57c63.47,9.75 88.61,14.99 111.52,15.57z"/>
  <path class="fil12" d="M1444.03 6053.36l-2.72 64c0,0 0,131.11 0,151.01 0,9.63 8.96,23.52 24.79,35.6 -82.24,89.19 -148.32,89.19 -230.56,0 15.83,-12.08 24.8,-25.97 24.8,-35.6 0,-19.9 0,-151.01 0,-151.01l-2.74 -64c0,0 45.89,8.25 93.21,19.83 47.33,-11.58 93.21,-19.83 93.21,-19.83z"/>
  <path class="fil18" d="M1354.39 5688.24l0 0c-111.71,0 -203.11,91.4 -203.11,203.1l0 156.93c0,111.71 91.4,203.13 203.11,203.13l0 0c111.71,0 203.11,-91.42 203.11,-203.13l0 -156.93c0,-111.7 -91.4,-203.1 -203.11,-203.1z"/>
  <path class="fil1" d="M1591.52 6006.82c0,0 68.06,-26.8 76.3,-109.3 0,0 88.68,-3.09 112.39,-53.6 23.71,-50.52 -204.15,-299 -294.89,-341.28 -90.72,-42.25 -239.19,57.75 -239.19,57.75 0,0 7.24,-47.42 -7.21,-61.85 -14.43,-14.46 -102.07,12.36 -120.64,160.83 0,0 -48.44,-23.72 -67.02,-17.54 -18.56,6.19 -15.46,47.43 22.68,69.09 0,0 -75.28,37.1 -81.46,87.61 -6.18,50.53 68.04,49.51 68.04,49.51 0,0 1.04,119.58 58.78,150.52l31.97 -17.52c0,0 17,3.61 17,-25.79 0,-29.37 0,-35.69 0,-35.69 0,0 50.14,-47.68 50.14,-98.6 0,0 78.74,28.48 114.47,16.13 35.75,-12.37 15.81,-57.07 15.81,-57.07 0,0 101.74,97.61 184.22,101.74 0,0 0,34.76 0,53.63 0,18.85 5.54,48.07 24.58,59.07l34.02 12.36z"/>
  <path class="fil12" d="M1557.5 6072.81c34.17,0 61.86,-27.7 61.86,-61.86 0,-34.18 -27.69,-61.87 -61.86,-61.87l0 123.74z"/>
  <path class="fil12" d="M1151.28 5949.07c-34.17,0 -61.86,27.69 -61.86,61.87 0,34.17 27.69,61.86 61.86,61.86l0 -123.74z"/>
  <path class="fil22" d="M1971.2 6940.03l-1240.83 0c-18.83,0 -31.35,15.4 -27.82,34.22l123.44 657.9c3.53,18.84 21.83,34.24 40.67,34.24l968.25 0c18.83,0 37.13,-15.4 40.67,-34.24l123.43 -657.9c3.54,-18.82 -8.98,-34.22 -27.8,-34.22z"/>
  <path class="fil23" d="M1536.93 7920.37c0,0 50.3,21.47 109.19,25.76 58.9,4.31 36.19,63.82 34.97,92.02 -1.24,28.22 -33.75,69.33 -47.86,70.56 -14.11,1.22 -122.08,-28.22 -122.08,-28.22l25.78 -160.11z"/>
  <path class="fil1" d="M1543.06 7905.65c0,0 -785.28,-365.65 -920.25,-414.72 -134.97,-49.08 -284.67,-54 -333.75,88.35 -49.07,142.3 27,240.48 265.04,336.19 238.04,95.72 909.21,191.4 934.97,187.74 25.76,-3.7 30.68,-10.44 43.56,-47.25 12.87,-36.8 26.98,-104.9 28.22,-115.33 1.22,-10.42 -6.75,-32.52 -17.79,-34.97z"/>
  <path class="fil12" d="M1388.33 6170.99c0,3.85 3.13,6.97 6.96,6.97 3.85,0 6.96,-3.12 6.96,-6.97 0,-14.18 -5.76,-27.07 -15.07,-36.38 -9.29,-9.3 -22.17,-15.06 -36.36,-15.06 -14.21,0 -27.07,5.75 -36.37,15.06 -9.31,9.31 -15.06,22.2 -15.06,36.38 0,3.85 3.11,6.97 6.96,6.97 3.83,0 6.94,-3.12 6.94,-6.97 0,-10.36 4.21,-19.74 11,-26.53 6.78,-6.79 16.17,-10.98 26.53,-10.98 10.36,0 19.74,4.19 26.53,10.98 6.79,6.8 10.99,16.17 10.99,26.53z"/>
  <path class="fil24" d="M773.52 7117.02l11.54 61.53 46.15 245.94 16.86 89.86c0.64,3.43 1.76,6.75 3.3,9.87 6.91,14.09 21.94,24.38 37.36,24.38l968.25 0c18.83,0 37.12,-15.41 40.68,-34.24l-9.63 51.25 -12.47 66.54c-3.54,18.84 -21.83,34.24 -40.67,34.24l-811.62 0c-73.6,-33.44 -145.52,-65.89 -208.47,-93.83l-10.76 -57.33 -22.39 -119.28 -79.11 -421.69c-3.53,-18.82 8.98,-34.22 27.82,-34.22l9.94 0 33.21 176.99z"/>
  <path class="fil25" d="M2052.53 5841.02c43.99,154.69 -110.98,323.91 -258.5,466.94 -59.64,57.85 -85.65,125.46 -93.97,189.63l-0.86 14.72c90.44,-68.88 290.96,-261.72 373.87,-402.28 59.83,-101.42 42.19,-191.69 -20.54,-269.01z"/>
  <path class="fil25" d="M1016.6 6783.15c-0.87,-62.32 -15.99,-82.49 -15.99,-82.49 0,0 -119.4,139.32 -188.98,239.36l82.39 0c43.75,-57.32 89.8,-114.94 122.58,-156.87z"/>
 </g>
</svg>
